<?xml version="1.0" encoding="UTF-8"?>
<svg width="150px" height="28px" viewBox="0 0 150 28" version="1.1" xmlns="http://www.w3.org/2000/svg" xmlns:xlink="http://www.w3.org/1999/xlink">
    <title>logo</title>
    <defs>
        <linearGradient x1="6.26339913%" y1="10.0643007%" x2="72.7510296%" y2="100.991299%" id="linearGradient-1">
            <stop stop-color="#25C5FF" offset="0%"></stop>
            <stop stop-color="#0048FF" offset="44.7409001%"></stop>
            <stop stop-color="#C500F3" offset="100%"></stop>
        </linearGradient>
        <polygon id="path-2" points="0.89 0.15 15.094 0.15 15.094 15.518 0.89 15.518"></polygon>
    </defs>
    <g id="Page-1" stroke="none" stroke-width="1" fill="none" fill-rule="evenodd">
        <g id="logo" transform="translate(0.000000, 2.000000)">
            <path d="M12.0001067,19.7333333 C7.73561124,19.7333333 4.26684207,16.2645333 4.26684207,12 L4.26684207,5.6 C4.26684207,3.98293333 2.95058711,2.66666667 1.33353481,2.66666667 L0.000213331436,2.66666667 L0.000213331436,0 L1.33353481,0 C4.42044071,0 6.93348504,2.51306667 6.93348504,5.6 L6.93348504,12 C6.93348504,14.7946667 9.20546484,17.0666667 12.0001067,17.0666667 C14.7947485,17.0666667 17.0667283,14.7946667 17.0667283,12 L17.0667283,5.6 C17.0667283,2.51306667 19.5797726,0 22.6666785,0 L24,0 L24,2.66666667 L22.6666785,2.66666667 C21.0496262,2.66666667 19.7333713,3.98293333 19.7333713,5.6 L19.7333713,12 C19.7333713,16.2645333 16.2646021,19.7333333 12.0001067,19.7333333 Z M23.0717949,4.26666667 L23.9997867,4.26666667 L23.9997867,7.44533333 L23.9997867,12 C23.9997867,18.6176 18.6174345,24 11.9998933,24 C5.38235216,24 0,18.6176 0,12 L0,7.44533333 L0,6.7008 L0,4.26666667 L0.927991751,4.26666667 C1.89864979,4.26666667 2.68370948,5.05173333 2.68370948,6.0224 L2.68370948,7.44533333 L2.66664296,7.44533333 L2.66664296,12 C2.66664296,17.1477333 6.85220576,21.3333333 11.9998933,21.3333333 C17.1475809,21.3333333 21.3331437,17.1477333 21.3331437,12 L21.3331437,7.44533333 L21.3160772,7.44533333 L21.3160772,6.0224 C21.3160772,5.05173333 22.1011369,4.26666667 23.0717949,4.26666667 Z" id="Combined-Shape" fill="url(#linearGradient-1)" fill-rule="nonzero"></path>
            <path d="M34.707,12.1954 L34.707,3.6494 L39.047,3.6494 L39.047,11.9714 C39.047,13.9394 40.277,15.3494 42.021,15.3494 C43.767,15.3494 44.997,13.9394 44.997,11.9714 L44.997,3.6494 L49.337,3.6494 L49.337,12.1954 C49.337,16.3554 46.317,19.2854 42.021,19.2854 C37.727,19.2854 34.707,16.3554 34.707,12.1954" id="Fill-3" fill="#231449" fill-rule="nonzero"></path>
            <path d="M50.6954,16.6914 L53.1114,13.8054 C54.6774,15.0354 56.3774,15.6854 58.1894,15.6854 C59.3754,15.6854 60.0014,15.2814 60.0014,14.6094 C60.0014,13.8734 59.4654,13.7614 57.3394,13.2694 C54.0054,12.5074 51.4334,11.6354 51.4334,8.4374 C51.4334,5.3714 53.8494,3.3814 57.4954,3.3814 C60.1574,3.3814 62.2374,4.0974 63.9394,5.4614 L61.7694,8.5254 C60.3374,7.4974 58.7714,6.9834 57.3834,6.9834 C56.3334,6.9834 55.8194,7.4074 55.8194,7.9894 C55.8194,8.7734 56.3554,9.0194 58.5474,9.4874 C62.1254,10.2494 64.3634,11.2114 64.3634,14.1414 C64.3634,17.3854 61.8794,19.2854 58.0334,19.2854 C55.2594,19.2854 52.6414,18.4134 50.6954,16.6914" id="Fill-5" fill="#231449" fill-rule="nonzero"></path>
            <polygon id="Fill-7" fill="#231449" fill-rule="nonzero" points="70.6446 7.5196 70.6446 9.2416 77.9606 9.2416 77.9606 13.1116 70.6446 13.1116 70.6446 15.1476 78.6766 15.1476 78.6766 19.0176 66.3046 19.0176 66.3046 3.6496 78.6766 3.6496 78.6766 7.5196"></polygon>
            <path d="M85.2022,10.4502 L87.8642,10.4502 C88.8942,10.4502 89.6322,9.8462 89.6322,9.0182 C89.6322,8.1902 88.8942,7.5862 87.8642,7.5862 L85.2022,7.5862 L85.2022,10.4502 Z M89.7882,19.0182 L86.5442,14.3862 L85.2022,14.3862 L85.2022,19.0182 L80.8622,19.0182 L80.8622,3.6502 L88.2222,3.6502 C91.6662,3.6502 94.1062,5.8642 94.1062,9.0182 C94.1062,11.2102 92.9422,12.9342 91.0642,13.8062 L94.7322,19.0182 L89.7882,19.0182 Z" id="Fill-9" fill="#231449" fill-rule="nonzero"></path>
            <polygon id="Fill-11" fill="#231449" fill-rule="nonzero" points="95.9356 3.6494 97.9036 3.6494 102.1536 16.0874 106.2256 3.6494 108.1716 3.6494 112.2416 16.0874 116.4916 3.6494 118.4616 3.6494 113.2036 19.0174 111.4816 19.0174 107.2096 5.9314 102.9136 19.0174 101.1916 19.0174"></polygon>
            <path d="M130.3994,13.873 L126.8434,5.797 L123.2634,13.873 L130.3994,13.873 Z M131.1154,15.529 L122.5474,15.529 L121.0034,19.017 L119.1034,19.017 L125.8814,3.649 L127.7814,3.649 L131.1154,11.209 L131.3574,11.757 L132.2914,13.873 L130.3994,13.873 L132.2914,13.873 L134.5594,19.017 L132.6574,19.017 L131.1154,15.529 Z" id="Fill-13" fill="#231449" fill-rule="nonzero"></path>
            <g id="Group-17" transform="translate(134.000000, 3.500000)">
                <g id="Fill-15-Clipped">
                    <mask id="mask-3" fill="white">
                        <use xlink:href="#path-2"></use>
                    </mask>
                    <g id="path-2"></g>
                    <polygon id="Fill-15" fill="#231449" fill-rule="nonzero" mask="url(#mask-3)" points="7.086 9.254 0.89 0.15 3.06 0.15 8.004 7.598 12.992 0.15 15.094 0.15 8.92 9.254 8.92 15.518 7.086 15.518"></polygon>
                </g>
            </g>
        </g>
    </g>
</svg>